<svg width="552" height="552" viewBox="0 0 552 552" fill="none" xmlns="http://www.w3.org/2000/svg">
<g clip-path="url(#clip0_111_1606)">
<path d="M275.995 -0.00446695C123.573 -0.00446695 0 123.568 0 276.005C0 428.427 123.573 552 275.995 552C428.432 552 552.005 428.427 552.005 276.005C552.005 123.568 428.432 -0.00446695 275.995 -0.00446695Z" fill="url(#paint0_linear_111_1606)"/>
<mask id="mask0_111_1606" style="mask-type:luminance" maskUnits="userSpaceOnUse" x="0" y="0" width="552" height="552">
<path d="M0 0.00298928H551.998V552H0V0.00298928Z" fill="white"/>
</mask>
<g mask="url(#mask0_111_1606)">
<path d="M237.63 339.404V174.314H171.725V125.621H299.774V341.94C299.774 367.835 316.433 376.235 333.898 376.235C343.589 376.235 353.824 374.191 366.529 369.387L380.271 415.052C358.532 422.154 343.813 426.384 317.769 426.384C265.039 426.384 237.63 392.521 237.63 339.404Z" fill="white"/>
</g>
</g>
<defs>
<linearGradient id="paint0_linear_111_1606" x1="-32.6949" y1="554.821" x2="274.932" y2="276.964" gradientUnits="userSpaceOnUse">
<stop stop-color="#0000FF"/>
<stop offset="5.1e-07" stop-color="#0000FF"/>
<stop offset="0.635613" stop-color="#6600FF"/>
<stop offset="0.999984" stop-color="#6600FF"/>
<stop offset="1" stop-color="#6600FF"/>
</linearGradient>
<clipPath id="clip0_111_1606">
<rect width="552" height="552" fill="white"/>
</clipPath>
</defs>
</svg>
